<svg width="17" height="18" viewBox="0 0 17 18" fill="none" xmlns="http://www.w3.org/2000/svg">
<mask id="mask0_102_724" style="mask-type:alpha" maskUnits="userSpaceOnUse" x="0" y="0" width="17" height="18">
<rect y="0.5" width="17" height="17" rx="8.5" fill="white"/>
</mask>
<g mask="url(#mask0_102_724)">
<path fill-rule="evenodd" clip-rule="evenodd" d="M1.19607 1.69607C-1.44754e-07 2.89214 0 4.81071 0 8.66V9.34C0 13.1893 -1.44754e-07 15.1079 1.19607 16.3039C2.39214 17.5 4.31071 17.5 8.16 17.5H8.84C12.6893 17.5 14.6079 17.5 15.8039 16.3039C17 15.1079 17 13.1893 17 9.34V8.66C17 4.81071 17 2.89214 15.8039 1.69607C14.6079 0.5 12.6893 0.5 8.84 0.5H8.16C4.31071 0.5 2.39214 0.5 1.19607 1.69607ZM2.82321 5.8125C2.92036 10.2325 5.24571 12.8979 9.07679 12.8979H9.30143V10.3661C10.6979 10.5057 11.7421 11.55 12.1671 12.8979H14.1829C13.9835 12.1394 13.627 11.4313 13.1365 10.8194C12.6459 10.2076 12.0323 9.70561 11.3354 9.34607C11.959 8.95362 12.4956 8.43764 12.9122 7.82993C13.3288 7.22222 13.6166 6.53565 13.7579 5.8125H11.9243C11.5357 7.22107 10.3943 8.49607 9.30143 8.6175V5.8125H7.4375V10.7182C6.30821 10.4389 4.82679 9.06071 4.76607 5.8125H2.82321Z" fill="#0077FF"/>
</g>
</svg>
