<svg width="17" height="18" viewBox="0 0 17 18" fill="none" xmlns="http://www.w3.org/2000/svg">
<path d="M8.5 17.5C13.1946 17.5 17 13.6946 17 9C17 4.30538 13.1946 0.5 8.5 0.5C3.80538 0.5 0 4.30538 0 9C0 13.6946 3.80538 17.5 8.5 17.5Z" fill="#FC3F1D"/>
<path d="M11.2131 13.7601H9.52615V5.41566H8.77488C7.40115 5.41566 6.67865 6.11005 6.67865 7.13724C6.67865 8.30567 7.18146 8.84378 8.20865 9.53817L9.05865 10.105L6.61458 13.7601H4.79492L6.99054 10.4974C5.72731 9.59897 5.02181 8.71367 5.02181 7.23663C5.02181 5.37316 6.31054 4.11255 8.76835 4.11255H11.2124L11.2131 13.7601Z" fill="white"/>
</svg>
