<svg width="17" height="18" viewBox="0 0 17 18" fill="none" xmlns="http://www.w3.org/2000/svg">
<path d="M16.9996 9.19556C16.9996 8.61775 16.9519 8.03682 16.8499 7.46838H8.6709V10.7416H13.3546C13.1603 11.7972 12.5358 12.7311 11.6213 13.3245V15.4484H14.4156C16.0565 13.9679 16.9996 11.7816 16.9996 9.19556Z" fill="#4285F4"/>
<path d="M8.67072 17.5004C11.0094 17.5004 12.9817 16.7477 14.4186 15.4484L11.6243 13.3245C10.8469 13.843 9.84324 14.1366 8.67391 14.1366C6.4117 14.1366 4.49361 12.6405 3.80539 10.6292H0.921875V12.8186C2.3939 15.6889 5.39212 17.5004 8.67072 17.5004Z" fill="#34A853"/>
<path d="M3.80273 10.6292C3.43951 9.57351 3.43951 8.43039 3.80273 7.37472V5.1853H0.922405C-0.307469 7.5871 -0.307469 10.4168 0.922405 12.8186L3.80273 10.6292Z" fill="#FBBC04"/>
<path d="M8.67072 3.8641C9.90697 3.84536 11.1018 4.30136 11.9971 5.1384L14.4728 2.71161C12.9052 1.26866 10.8246 0.475342 8.67072 0.500329C5.39212 0.500329 2.3939 2.31183 0.921875 5.18524L3.8022 7.37466C4.48724 5.36015 6.40852 3.8641 8.67072 3.8641Z" fill="#EA4335"/>
</svg>
